<?xml version="1.0" encoding="UTF-8" standalone="no"?>
<svg width="32px" height="33px" viewBox="0 0 32 33" version="1.1" xmlns="http://www.w3.org/2000/svg" xmlns:xlink="http://www.w3.org/1999/xlink" xmlns:sketch="http://www.bohemiancoding.com/sketch/ns">
    <!-- Generator: Sketch 3.2.2 (9983) - http://www.bohemiancoding.com/sketch -->
    <title>Oval 1 + Imported Layers</title>
    <desc>Created with Sketch.</desc>
    <defs></defs>
    <g id="Page-1" stroke="none" stroke-width="1" fill="none" fill-rule="evenodd" sketch:type="MSPage">
        <g id="Desktop-HD" sketch:type="MSArtboardGroup" transform="translate(-860.000000, -682.000000)" fill="#FFFFFF">
            <g id="Group" sketch:type="MSLayerGroup" transform="translate(860.000000, 682.000000)">
                <g id="outlined" transform="translate(0.000000, 0.500000)" sketch:type="MSShapeGroup">
                    <g id="Oval-1-+-Imported-Layers">
                        <path d="M32,16 C32,7.163444 24.836556,0 16,0 C7.163444,0 0,7.163444 0,16 C0,24.836556 7.163444,32 16,32 C24.836556,32 32,24.836556 32,16 Z M1.03225806,16 C1.03225806,7.73354439 7.73354439,1.03225806 16,1.03225806 C24.2664556,1.03225806 30.9677419,7.73354439 30.9677419,16 C30.9677419,24.2664556 24.2664556,30.9677419 16,30.9677419 C7.73354439,30.9677419 1.03225806,24.2664556 1.03225806,16 Z" id="Oval-1"></path>
                        <path d="M13.819,22.8323333 L13.819,16.466 L12,16.466 L12,14.215 L13.819,14.215 L13.819,12.3505 C13.819,10.3825 14.9213333,9 17.2441667,9 L18.884,9.00183333 L18.884,11.371 L17.7953333,11.371 C16.8913333,11.371 16.5475,12.0495 16.5475,12.6788333 L16.5475,14.2158333 L18.883,14.2158333 L18.3665,16.466 L16.5475,16.466 L16.5475,22.8323333 L13.819,22.8323333" id="Imported-Layers"></path>
                    </g>
                </g>
            </g>
        </g>
    </g>
</svg>