<?xml version="1.0" encoding="UTF-8" standalone="no"?>
<svg width="32px" height="33px" viewBox="0 0 32 33" version="1.1" xmlns="http://www.w3.org/2000/svg" xmlns:xlink="http://www.w3.org/1999/xlink" xmlns:sketch="http://www.bohemiancoding.com/sketch/ns">
    <!-- Generator: Sketch 3.2.2 (9983) - http://www.bohemiancoding.com/sketch -->
    <title>Oval 2 + </title>
    <desc>Created with Sketch.</desc>
    <defs></defs>
    <g id="Page-1" stroke="none" stroke-width="1" fill="none" fill-rule="evenodd" sketch:type="MSPage">
        <g id="Desktop-HD" sketch:type="MSArtboardGroup" transform="translate(-907.000000, -682.000000)" fill="#FFFFFF">
            <g id="Group" sketch:type="MSLayerGroup" transform="translate(860.000000, 682.000000)">
                <g id="outlined" transform="translate(0.000000, 0.500000)" sketch:type="MSShapeGroup">
                    <g id="Oval-2-+-" transform="translate(47.000000, 0.000000)">
                        <g>
                            <path d="M32,16 C32,7.163444 24.836556,0 16,0 C7.163444,0 0,7.163444 0,16 C0,24.836556 7.163444,32 16,32 C24.836556,32 32,24.836556 32,16 Z M1.03225806,16 C1.03225806,7.73354439 7.73354439,1.03225806 16,1.03225806 C24.2664556,1.03225806 30.9677419,7.73354439 30.9677419,16 C30.9677419,24.2664556 24.2664556,30.9677419 16,30.9677419 C7.73354439,30.9677419 1.03225806,24.2664556 1.03225806,16 Z" id="Oval-2"></path>
                            <path d="M24,16.2016156 C24,11.6736403 20.4166667,8 16,8 C11.5833333,8 8,11.6736403 8,16.2016156 C8,19.82186 10.2916667,22.8974658 13.46875,23.9867429 C13.875,24.0614972 14.0208333,23.8051967 14.0208333,23.591613 C14.0208333,23.3993876 14.0104167,22.7479572 14.0104167,22.0644893 C14.0104167,22.0644893 11.78125,22.5557319 11.3125,21.0926832 C11.3125,21.0926832 10.9479167,20.1422356 10.4270833,19.8966143 C10.4270833,19.8966143 9.69791667,19.3840133 10.4791667,19.3946925 C10.4791667,19.3946925 11.2708333,19.4587676 11.7083333,20.2383483 C12.40625,21.4984923 13.5729167,21.1354 14.03125,20.9218162 C14.1041667,20.3878569 14.3125,20.0354437 14.5416667,19.82186 C12.7604167,19.6189554 10.8958333,18.9141291 10.8958333,15.7744481 C10.8958333,14.8773964 11.2083333,14.1405325 11.71875,13.5745356 C11.6354167,13.3609519 11.3645833,12.5279753 11.7916667,11.3959815 C12.46875,11.1823977 14,12.2396372 14,12.2396372 C14.6354167,12.0580911 15.3229167,11.9619784 16,11.9619784 C16.6770833,11.9619784 17.3645833,12.0580911 18,12.2396372 C18,12.2396372 19.53125,11.1823977 20.1979167,11.3959815 C20.6354167,12.5279753 20.3645833,13.3609519 20.28125,13.5745356 C20.7916667,14.1405325 21.1041667,14.8773964 21.1041667,15.7744481 C21.1041667,18.9248083 19.2291667,19.6189554 17.4479167,19.82186 C17.7395833,20.0781605 17.9895833,20.5694031 17.9895833,21.3383045 L17.9895833,23.591613 C17.9895833,23.8051967 18.125,24.0614972 18.53125,23.9867429 C21.7083333,22.8974658 24,19.82186 24,16.2016156 L24,16.2016156 Z" id=""></path>
                        </g>
                    </g>
                </g>
            </g>
        </g>
    </g>
</svg>