<?xml version="1.0" encoding="UTF-8" standalone="no"?>
<svg width="32px" height="33px" viewBox="0 0 32 33" version="1.1" xmlns="http://www.w3.org/2000/svg" xmlns:xlink="http://www.w3.org/1999/xlink" xmlns:sketch="http://www.bohemiancoding.com/sketch/ns">
    <!-- Generator: Sketch 3.2.2 (9983) - http://www.bohemiancoding.com/sketch -->
    <title>Oval 3 + </title>
    <desc>Created with Sketch.</desc>
    <defs></defs>
    <g id="Page-1" stroke="none" stroke-width="1" fill="none" fill-rule="evenodd" sketch:type="MSPage">
        <g id="Desktop-HD" sketch:type="MSArtboardGroup" transform="translate(-954.000000, -682.000000)" fill="#FFFFFF">
            <g id="Group" sketch:type="MSLayerGroup" transform="translate(860.000000, 682.000000)">
                <g id="outlined" transform="translate(0.000000, 0.500000)" sketch:type="MSShapeGroup">
                    <g id="Oval-3-+-" transform="translate(94.000000, 0.000000)">
                        <path d="M32,16 C32,7.163444 24.836556,0 16,0 C7.163444,0 0,7.163444 0,16 C0,24.836556 7.163444,32 16,32 C24.836556,32 32,24.836556 32,16 Z M1.03225806,16 C1.03225806,7.73354439 7.73354439,1.03225806 16,1.03225806 C24.2664556,1.03225806 30.9677419,7.73354439 30.9677419,16 C30.9677419,24.2664556 24.2664556,30.9677419 16,30.9677419 C7.73354439,30.9677419 1.03225806,24.2664556 1.03225806,16 Z" id="Oval-3"></path>
                        <path d="M21.4140625,20.8307292 C21.4140625,21.140625 21.1679688,21.3867187 20.8580729,21.3867187 L11.1145833,21.3867187 C10.8046875,21.3867187 10.5585938,21.140625 10.5585938,20.8307292 L10.5585938,14.9244792 L11.84375,14.9244792 C11.7252604,15.2981771 11.6614583,15.7083333 11.6614583,16.1184896 C11.6614583,18.4518229 13.6119792,20.3385417 16.0091146,20.3385417 C18.4153646,20.3385417 20.3658854,18.4518229 20.3658854,16.1184896 C20.3658854,15.7083333 20.3020833,15.2981771 20.1835938,14.9244792 L21.4140625,14.9244792 L21.4140625,20.8307292 Z M18.8255208,15.9726563 C18.8255208,17.4765625 17.5677083,18.6979167 16.0091146,18.6979167 C14.4596354,18.6979167 13.2018229,17.4765625 13.2018229,15.9726563 C13.2018229,14.46875 14.4596354,13.2473958 16.0091146,13.2473958 C17.5677083,13.2473958 18.8255208,14.46875 18.8255208,15.9726563 L18.8255208,15.9726563 Z M21.4140625,12.6914062 C21.4140625,13.0377604 21.1315104,13.3203125 20.7851562,13.3203125 L19.1992188,13.3203125 C18.8528646,13.3203125 18.5703125,13.0377604 18.5703125,12.6914062 L18.5703125,11.1875 C18.5703125,10.8411458 18.8528646,10.5585938 19.1992188,10.5585938 L20.7851562,10.5585938 C21.1315104,10.5585938 21.4140625,10.8411458 21.4140625,11.1875 L21.4140625,12.6914062 Z M23,10.7955729 C23,9.81119792 22.1888021,9 21.2044271,9 L10.7955729,9 C9.81119792,9 9,9.81119792 9,10.7955729 L9,21.2044271 C9,22.1888021 9.81119792,23 10.7955729,23 L21.2044271,23 C22.1888021,23 23,22.1888021 23,21.2044271 L23,10.7955729 Z" id=""></path>
                    </g>
                </g>
            </g>
        </g>
    </g>
</svg>