<?xml version="1.0" encoding="UTF-8" standalone="no"?>
<svg width="33px" height="32px" viewBox="0 0 33 32" version="1.1" xmlns="http://www.w3.org/2000/svg" xmlns:xlink="http://www.w3.org/1999/xlink" xmlns:sketch="http://www.bohemiancoding.com/sketch/ns">
    <!-- Generator: Sketch 3.2.2 (9983) - http://www.bohemiancoding.com/sketch -->
    <title>Oval 5 + Path + Path</title>
    <desc>Created with Sketch.</desc>
    <defs></defs>
    <g id="Page-1" stroke="none" stroke-width="1" fill="none" fill-rule="evenodd" sketch:type="MSPage">
        <g id="Desktop-HD" sketch:type="MSArtboardGroup" transform="translate(-1048.000000, -683.000000)" fill="#FFFFFF">
            <g id="Group" sketch:type="MSLayerGroup" transform="translate(860.000000, 682.000000)">
                <g id="outlined" transform="translate(0.000000, 0.500000)" sketch:type="MSShapeGroup">
                    <g id="Oval-5-+-Path-+-Path" transform="translate(188.000000, 0.000000)">
                        <path d="M32.5,16.5 C32.5,7.663444 25.336556,0.5 16.5,0.5 C7.663444,0.5 0.5,7.663444 0.5,16.5 C0.5,25.336556 7.663444,32.5 16.5,32.5 C25.336556,32.5 32.5,25.336556 32.5,16.5 Z M1.53225806,16.5 C1.53225806,8.23354439 8.23354439,1.53225806 16.5,1.53225806 C24.7664556,1.53225806 31.4677419,8.23354439 31.4677419,16.5 C31.4677419,24.7664556 24.7664556,31.4677419 16.5,31.4677419 C8.23354439,31.4677419 1.53225806,24.7664556 1.53225806,16.5 Z" id="Oval-5"></path>
                        <path d="M10.5385074,13.43475 C10.9054111,13.6421667 15.9879296,16.5175 16.1773963,16.624375 C16.366863,16.73125 16.6119667,16.7819167 16.8585741,16.7819167 C17.1051815,16.7819167 17.3502852,16.73125 17.5397519,16.624375 C17.7292185,16.5175 22.811737,13.6421667 23.1786407,13.43475 C23.5462963,13.2265417 23.8936519,12.4166667 23.2192407,12.4166667 L10.4986593,12.4166667 C9.82424815,12.4166667 10.1716037,13.2265417 10.5385074,13.43475 L10.5385074,13.43475 Z" id="Path"></path>
                        <path d="M23.3493111,15.1787917 C22.9320333,15.4075833 17.7953815,18.2259167 17.5397519,18.3668333 C17.2841222,18.50775 17.1051815,18.524375 16.8585741,18.524375 C16.6119667,18.524375 16.4330259,18.50775 16.1773963,18.3668333 C15.9217667,18.2259167 10.814437,15.4067917 10.3971593,15.178 C10.103937,15.0165 10.1069444,15.2057083 10.1069444,15.351375 L10.1069444,21.125 C10.1069444,21.4575 10.5324926,21.9166667 10.8587963,21.9166667 L22.8884259,21.9166667 C23.2147296,21.9166667 23.6402778,21.4575 23.6402778,21.125 L23.6402778,15.3521667 C23.6402778,15.2065 23.6432852,15.0172917 23.3493111,15.1787917 L23.3493111,15.1787917 Z" id="Path"></path>
                    </g>
                </g>
            </g>
        </g>
    </g>
</svg>