<?xml version="1.0" encoding="UTF-8" standalone="no"?>
<svg width="32px" height="33px" viewBox="0 0 32 33" version="1.1" xmlns="http://www.w3.org/2000/svg" xmlns:xlink="http://www.w3.org/1999/xlink" xmlns:sketch="http://www.bohemiancoding.com/sketch/ns">
    <!-- Generator: Sketch 3.2.2 (9983) - http://www.bohemiancoding.com/sketch -->
    <title>Oval 4 +  2</title>
    <desc>Created with Sketch.</desc>
    <defs></defs>
    <g id="Page-1" stroke="none" stroke-width="1" fill="none" fill-rule="evenodd" sketch:type="MSPage">
        <g id="Desktop-HD" sketch:type="MSArtboardGroup" transform="translate(-1001.000000, -682.000000)">
            <g id="Group" sketch:type="MSLayerGroup" transform="translate(860.000000, 682.000000)">
                <g id="colors" transform="translate(0.000000, 0.500000)" sketch:type="MSShapeGroup">
                    <g id="Oval-4-+--2" transform="translate(141.000000, 0.000000)">
                        <path d="M32,16 C32,7.163444 24.836556,0 16,0 C7.163444,0 0,7.163444 0,16 C0,24.836556 7.163444,32 16,32 C24.836556,32 32,24.836556 32,16 Z" id="Oval-4" fill="#0275B3"></path>
                        <path d="M12.953776,12.8991826 L10.1608073,12.8991826 L10.1608073,21 L12.953776,21 L12.953776,12.8991826 Z M13.1315104,10.3978202 C13.1230469,9.60490463 12.530599,9 11.5742188,9 C10.6263021,9 10,9.60490463 10,10.3978202 C10,11.1743869 10.6009115,11.7956403 11.5403646,11.7956403 L11.5572917,11.7956403 C12.530599,11.7956403 13.139974,11.1743869 13.1315104,10.3978202 L13.1315104,10.3978202 Z M23,16.3569482 C23,13.8719346 21.6289062,12.7111717 19.7923177,12.7111717 C18.2858073,12.7111717 17.625651,13.520436 17.2617188,14.0762943 L17.2786458,14.0762943 L17.2786458,12.8991826 L14.4941406,12.8991826 C14.4941406,12.8991826 14.5279948,13.6594005 14.4941406,21 L17.2786458,21 L17.2786458,16.479564 C17.2786458,16.2343324 17.3040365,15.9972752 17.3717448,15.8174387 C17.5748698,15.3351499 18.031901,14.8365123 18.8020833,14.8365123 C19.8092448,14.8365123 20.2154948,15.5803815 20.2154948,16.6675749 L20.2154948,21 L23,21 L23,16.3569482 Z" id="" fill="#FFFFFF"></path>
                    </g>
                </g>
            </g>
        </g>
    </g>
</svg>